<?xml version="1.0" encoding="utf-8"?>
<!-- Generator: Adobe Illustrator 26.0.3, SVG Export Plug-In . SVG Version: 6.00 Build 0)  -->
<svg version="1.1" id="Layer_1" xmlns="http://www.w3.org/2000/svg" xmlns:xlink="http://www.w3.org/1999/xlink" x="0px" y="0px"
	 viewBox="0 0 293.6 89.3" style="enable-background:new 0 0 293.6 89.3;" xml:space="preserve">
<style type="text/css">
	.st0{fill:#C5C3C0;}
</style>
<g>
	<path class="st0" d="M44.2,0.6C21,0.6,2,18.5,0.2,41.3l23.7,9.8c2-1.4,4.4-2.2,7-2.2c0.2,0,0.5,0,0.7,0l10.5-15.3
		c0-0.1,0-0.1,0-0.2c0-9.2,7.5-16.7,16.7-16.7c9.2,0,16.7,7.5,16.7,16.7S68,50.1,58.8,50.1c-0.1,0-0.3,0-0.4,0l-15,10.7
		c0,0.2,0,0.4,0,0.6c0,6.9-5.6,12.5-12.5,12.5c-6.1,0-11.1-4.3-12.3-10.1l-17-7C6.9,75.5,24,89.1,44.2,89.1
		c24.4,0,44.2-19.8,44.2-44.2C88.5,20.4,68.7,0.6,44.2,0.6"/>
	<path class="st0" d="M27.9,67.7l-5.4-2.2c1,2,2.6,3.7,4.8,4.6c4.8,2,10.3-0.3,12.3-5.1c1-2.3,1-4.9,0-7.2c-1-2.3-2.8-4.1-5.1-5.1
		c-2.3-1-4.8-0.9-6.9-0.1l5.6,2.3c3.5,1.5,5.2,5.5,3.7,9C35.5,67.5,31.4,69.2,27.9,67.7"/>
	<path class="st0" d="M69.9,33.4c0-6.1-5-11.1-11.1-11.1c-6.1,0-11.1,5-11.1,11.1c0,6.1,5,11.1,11.1,11.1
		C65,44.5,69.9,39.6,69.9,33.4 M50.5,33.4c0-4.6,3.7-8.4,8.4-8.4s8.4,3.7,8.4,8.4s-3.7,8.3-8.4,8.3S50.5,38,50.5,33.4"/>
	<path class="st0" d="M135.7,30.9l-3,5.2c-2.3-1.6-5.4-2.6-8.1-2.6c-3.1,0-5,1.3-5,3.6c0,2.8,3.4,3.4,8.4,5.2
		c5.4,1.9,8.5,4.2,8.5,9.1c0,6.8-5.3,10.6-13,10.6c-3.7,0-8.3-1-11.7-3.1l2.2-5.8c2.8,1.5,6.2,2.4,9.2,2.4c4.1,0,6-1.5,6-3.7
		c0-2.5-2.9-3.3-7.7-4.9c-5.4-1.8-9.1-4.2-9.1-9.7c0-6.2,5-9.8,12.1-9.8C129.5,27.6,133.5,29.2,135.7,30.9"/>
	<polygon class="st0" points="158.9,34.2 158.9,61.5 151.9,61.5 151.9,34.2 141.8,34.2 141.8,28.2 169,28.2 169,34.2 	"/>
	<polygon class="st0" points="183.7,34.1 183.7,41.7 197.1,41.7 197.1,47.6 183.7,47.6 183.7,55.5 199.2,55.5 199.2,61.5 
		176.7,61.5 176.7,28.2 199.2,28.2 199.2,34.1 	"/>
	<path class="st0" d="M214.8,55l-2.2,6.5h-7.3l12.5-33.3h7l12.8,33.3h-7.6l-2.3-6.5L214.8,55L214.8,55z M221.2,36.1l-4.6,13.3h9.2
		L221.2,36.1z"/>
	<polygon class="st0" points="273.4,41.1 264.3,60.5 260.4,60.5 251.4,41.2 251.4,61.5 244.7,61.5 244.7,28.2 251.4,28.2 
		262.6,52.2 273.4,28.2 280.1,28.2 280.1,61.5 273.4,61.5 	"/>
	<path class="st0" d="M293.6,32.4c0,2.9-2.1,4.6-4.6,4.6c-2.5,0-4.6-1.8-4.6-4.6c0-2.9,2.2-4.6,4.6-4.6
		C291.5,27.7,293.6,29.5,293.6,32.4 M285.2,32.4c0,2.4,1.7,3.9,3.8,3.9c2.1,0,3.8-1.5,3.8-3.9c0-2.4-1.7-3.9-3.8-3.9
		C286.9,28.5,285.2,30,285.2,32.4 M289.1,30c1.2,0,1.6,0.6,1.6,1.3c0,0.6-0.4,1-0.8,1.3l1.1,2H290l-0.9-1.8h-0.9v1.8h-0.7V30H289.1z
		 M288.2,32.1h0.8c0.5,0,0.8-0.3,0.8-0.7c0-0.4-0.2-0.7-0.8-0.7h-0.8L288.2,32.1L288.2,32.1z"/>
</g>
</svg>
