<?xml version="1.0" encoding="utf-8"?>
<!-- Generator: Adobe Illustrator 26.0.3, SVG Export Plug-In . SVG Version: 6.00 Build 0)  -->
<svg version="1.1" id="Layer_1" xmlns="http://www.w3.org/2000/svg" xmlns:xlink="http://www.w3.org/1999/xlink" x="0px" y="0px"
	 viewBox="0 0 88.5 89.3" style="enable-background:new 0 0 88.5 89.3;" xml:space="preserve">
<style type="text/css">
	.st0{fill:#C5C3C0;}
</style>
<g>
	<path class="st0" d="M44.2,0.6C21,0.6,2,18.5,0.2,41.3l23.7,9.8c2-1.4,4.4-2.2,7-2.2c0.2,0,0.5,0,0.7,0l10.5-15.3
		c0-0.1,0-0.1,0-0.2c0-9.2,7.5-16.7,16.7-16.7c9.2,0,16.7,7.5,16.7,16.7S68,50.1,58.8,50.1c-0.1,0-0.3,0-0.4,0l-15,10.7
		c0,0.2,0,0.4,0,0.6c0,6.9-5.6,12.5-12.5,12.5c-6.1,0-11.1-4.3-12.3-10.1l-17-7C6.9,75.5,24,89.1,44.2,89.1
		c24.4,0,44.2-19.8,44.2-44.2C88.5,20.4,68.7,0.6,44.2,0.6"/>
	<path class="st0" d="M27.9,67.7l-5.4-2.2c1,2,2.6,3.7,4.8,4.6c4.8,2,10.3-0.3,12.3-5.1c1-2.3,1-4.9,0-7.2c-1-2.3-2.8-4.1-5.1-5.1
		c-2.3-1-4.8-0.9-6.9-0.1l5.6,2.3c3.5,1.5,5.2,5.5,3.7,9C35.5,67.5,31.4,69.2,27.9,67.7"/>
	<path class="st0" d="M69.9,33.4c0-6.1-5-11.1-11.1-11.1c-6.1,0-11.1,5-11.1,11.1c0,6.1,5,11.1,11.1,11.1
		C65,44.5,69.9,39.6,69.9,33.4 M50.5,33.4c0-4.6,3.7-8.4,8.4-8.4s8.4,3.7,8.4,8.4s-3.7,8.3-8.4,8.3S50.5,38,50.5,33.4"/>
</g>
</svg>
